<svg width="1512" height="982" viewBox="0 0 1512 982" fill="none" stroke="#000000" xmlns="http://www.w3.org/2000/svg">
<rect width="1512" height="982" fill="#F5F5F5"/>
<rect width="1512" height="56" fill="white"/>
<rect x="192" y="12" width="127" height="32" rx="7" fill="#D9D9D9"/>
<path d="M214.93 23.568V23.12H219.65C221.016 23.12 222.061 23.52 222.786 24.32C223.522 25.12 223.89 26.3627 223.89 28.048V29.056C223.89 30.7413 223.522 31.9893 222.786 32.8C222.061 33.6 221.016 34 219.65 34H214.93V33.552L215.81 33.44C215.981 33.4187 216.082 33.376 216.114 33.312C216.146 33.2373 216.162 33.0187 216.162 32.656V24.464C216.162 24.1013 216.146 23.888 216.114 23.824C216.082 23.7493 215.981 23.7013 215.81 23.68L214.93 23.568ZM219.57 23.68H218.082V33.44H219.57C220.114 33.44 220.552 33.3493 220.882 33.168C221.213 32.976 221.453 32.624 221.602 32.112C221.762 31.5893 221.842 30.8373 221.842 29.856V27.248C221.842 26.2667 221.762 25.52 221.602 25.008C221.453 24.496 221.213 24.1493 220.882 23.968C220.552 23.776 220.114 23.68 219.57 23.68ZM232.529 32.096C232.337 32.8427 231.98 33.376 231.457 33.696C230.935 34.0053 230.327 34.16 229.633 34.16C228.353 34.16 227.393 33.792 226.753 33.056C226.113 32.3093 225.793 31.3227 225.793 30.096V29.776C225.793 28.5493 226.092 27.568 226.689 26.832C227.297 26.096 228.172 25.728 229.313 25.728C229.953 25.728 230.519 25.856 231.009 26.112C231.511 26.3573 231.9 26.7147 232.177 27.184C232.465 27.6533 232.609 28.224 232.609 28.896C232.609 29.056 232.599 29.2267 232.577 29.408C232.567 29.5893 232.54 29.7707 232.497 29.952H227.761V30.416C227.761 31.5467 227.921 32.3627 228.241 32.864C228.561 33.3547 229.079 33.6 229.793 33.6C230.252 33.6 230.641 33.4667 230.961 33.2C231.281 32.9227 231.463 32.4587 231.505 31.808L232.529 32.096ZM229.313 26.288C228.791 26.288 228.401 26.528 228.145 27.008C227.889 27.488 227.761 28.2827 227.761 29.392H230.657C230.7 29.1787 230.727 28.9813 230.737 28.8C230.759 28.608 230.769 28.432 230.769 28.272C230.769 27.5893 230.636 27.088 230.369 26.768C230.103 26.448 229.751 26.288 229.313 26.288ZM240.51 27.232L238.238 34H236.782L234.51 27.232C234.435 26.9867 234.371 26.816 234.318 26.72C234.275 26.6133 234.222 26.544 234.158 26.512C234.104 26.48 234.019 26.4587 233.902 26.448L233.022 26.336V25.888H237.342V26.336L236.462 26.448C236.302 26.4693 236.216 26.512 236.206 26.576C236.195 26.64 236.248 26.8587 236.366 27.232L238.126 32.544L239.902 27.232C240.019 26.8587 240.072 26.64 240.062 26.576C240.062 26.512 239.976 26.4693 239.806 26.448L238.926 26.336V25.888H241.982V26.336L241.102 26.448C240.995 26.4587 240.91 26.48 240.846 26.512C240.792 26.544 240.744 26.6133 240.702 26.72C240.659 26.816 240.595 26.9867 240.51 27.232ZM242.09 23.12H250.89V25.872H250.442L249.93 24.096C249.898 23.9573 249.861 23.8613 249.818 23.808C249.786 23.744 249.717 23.7067 249.61 23.696C249.504 23.6853 249.322 23.68 249.066 23.68H247.45V32.656C247.45 33.0187 247.466 33.2373 247.498 33.312C247.53 33.376 247.632 33.4187 247.802 33.44L248.682 33.552V34H244.298V33.552L245.178 33.44C245.349 33.4187 245.45 33.376 245.482 33.312C245.514 33.2373 245.53 33.0187 245.53 32.656V23.68H243.914C243.669 23.68 243.488 23.6853 243.37 23.696C243.264 23.7067 243.194 23.744 243.162 23.808C243.13 23.8613 243.093 23.9573 243.05 24.096L242.538 25.872H242.09V23.12ZM251.454 26.336V25.888H254.43V27.2C255.081 26.2187 255.854 25.728 256.75 25.728C257.081 25.728 257.401 25.8347 257.71 26.048C258.019 26.2507 258.275 26.6347 258.478 27.2L257.054 27.968C256.905 27.5307 256.729 27.2373 256.526 27.088C256.334 26.928 256.126 26.848 255.902 26.848C255.667 26.848 255.438 26.9227 255.214 27.072C254.99 27.2213 254.761 27.4987 254.526 27.904V32.656C254.526 33.0187 254.542 33.2373 254.574 33.312C254.606 33.376 254.707 33.4187 254.878 33.44L256.078 33.552V34H251.454V33.552L252.334 33.44C252.505 33.4187 252.606 33.376 252.638 33.312C252.67 33.2373 252.686 33.0187 252.686 32.656V27.232C252.686 26.8693 252.67 26.656 252.638 26.592C252.606 26.5173 252.505 26.4693 252.334 26.448L251.454 26.336ZM266.926 33.6C266.756 33.76 266.548 33.8933 266.302 34C266.068 34.1067 265.78 34.16 265.438 34.16C265.001 34.16 264.633 34.064 264.334 33.872C264.046 33.68 263.854 33.408 263.758 33.056C263.406 33.44 263.017 33.7227 262.59 33.904C262.174 34.0747 261.748 34.16 261.31 34.16C260.574 34.16 260.025 33.9573 259.662 33.552C259.3 33.136 259.118 32.6187 259.118 32C259.118 31.3707 259.348 30.864 259.806 30.48C260.265 30.0853 261.076 29.888 262.238 29.888H263.694V28.592C263.694 27.7067 263.577 27.104 263.342 26.784C263.118 26.4533 262.804 26.288 262.398 26.288C262.132 26.288 261.886 26.3573 261.662 26.496C261.438 26.624 261.278 26.8693 261.182 27.232C261.097 27.584 261.113 28.096 261.23 28.768L259.47 28.512C259.385 28.0213 259.438 27.568 259.63 27.152C259.833 26.7253 260.169 26.384 260.638 26.128C261.108 25.8613 261.705 25.728 262.43 25.728C263.252 25.728 263.886 25.8613 264.334 26.128C264.782 26.3947 265.092 26.7467 265.262 27.184C265.444 27.6213 265.534 28.0907 265.534 28.592V32.288C265.534 32.832 265.582 33.1733 265.678 33.312C265.774 33.4507 265.881 33.52 265.998 33.52C266.19 33.52 266.404 33.408 266.638 33.184L266.926 33.6ZM262.014 33.312C262.292 33.312 262.564 33.2427 262.83 33.104C263.108 32.9547 263.396 32.6827 263.694 32.288V30.448H262.494C261.972 30.448 261.593 30.5707 261.358 30.816C261.124 31.0613 261.006 31.4453 261.006 31.968C261.006 32.3947 261.092 32.7253 261.262 32.96C261.433 33.1947 261.684 33.312 262.014 33.312ZM269.52 24.512C269.189 24.512 268.922 24.4107 268.72 24.208C268.517 23.9947 268.416 23.7227 268.416 23.392C268.416 23.0613 268.517 22.7947 268.72 22.592C268.922 22.3893 269.189 22.288 269.52 22.288C269.84 22.288 270.106 22.3893 270.32 22.592C270.533 22.7947 270.64 23.0613 270.64 23.392C270.64 23.7227 270.533 23.9947 270.32 24.208C270.106 24.4107 269.84 24.512 269.52 24.512ZM267.376 26.336V25.888H270.448V32.656C270.448 33.0187 270.464 33.2373 270.496 33.312C270.528 33.376 270.629 33.4187 270.8 33.44L271.68 33.552V34H267.376V33.552L268.256 33.44C268.426 33.4187 268.528 33.376 268.56 33.312C268.592 33.2373 268.608 33.0187 268.608 32.656V27.232C268.608 26.8693 268.592 26.656 268.56 26.592C268.528 26.5173 268.426 26.4693 268.256 26.448L267.376 26.336ZM281.722 33.552V34H277.418V33.552L278.298 33.44C278.468 33.4187 278.57 33.376 278.602 33.312C278.634 33.2373 278.65 33.0187 278.65 32.656V28.624C278.65 27.888 278.538 27.3547 278.314 27.024C278.1 26.6827 277.78 26.512 277.354 26.512C277.172 26.512 276.959 26.56 276.714 26.656C276.479 26.7413 276.239 26.9013 275.994 27.136C275.759 27.3707 275.551 27.7173 275.37 28.176V32.656C275.37 33.0187 275.386 33.2373 275.418 33.312C275.45 33.376 275.551 33.4187 275.722 33.44L276.602 33.552V34H272.298V33.552L273.178 33.44C273.348 33.4187 273.45 33.376 273.482 33.312C273.514 33.2373 273.53 33.0187 273.53 32.656V27.232C273.53 26.8693 273.514 26.656 273.482 26.592C273.45 26.5173 273.348 26.4693 273.178 26.448L272.298 26.336V25.888H275.274V27.296C275.583 26.752 275.978 26.3573 276.458 26.112C276.948 25.856 277.439 25.728 277.93 25.728C278.719 25.728 279.343 25.9787 279.802 26.48C280.26 26.9813 280.49 27.6907 280.49 28.608V32.656C280.49 33.0187 280.506 33.2373 280.538 33.312C280.57 33.376 280.671 33.4187 280.842 33.44L281.722 33.552ZM289.482 32.096C289.29 32.8427 288.933 33.376 288.41 33.696C287.888 34.0053 287.28 34.16 286.586 34.16C285.306 34.16 284.346 33.792 283.706 33.056C283.066 32.3093 282.746 31.3227 282.746 30.096V29.776C282.746 28.5493 283.045 27.568 283.642 26.832C284.25 26.096 285.125 25.728 286.266 25.728C286.906 25.728 287.472 25.856 287.962 26.112C288.464 26.3573 288.853 26.7147 289.13 27.184C289.418 27.6533 289.562 28.224 289.562 28.896C289.562 29.056 289.552 29.2267 289.53 29.408C289.52 29.5893 289.493 29.7707 289.45 29.952H284.714V30.416C284.714 31.5467 284.874 32.3627 285.194 32.864C285.514 33.3547 286.032 33.6 286.746 33.6C287.205 33.6 287.594 33.4667 287.914 33.2C288.234 32.9227 288.416 32.4587 288.458 31.808L289.482 32.096ZM286.266 26.288C285.744 26.288 285.354 26.528 285.098 27.008C284.842 27.488 284.714 28.2827 284.714 29.392H287.61C287.653 29.1787 287.68 28.9813 287.69 28.8C287.712 28.608 287.722 28.432 287.722 28.272C287.722 27.5893 287.589 27.088 287.322 26.768C287.056 26.448 286.704 26.288 286.266 26.288ZM290.735 26.336V25.888H293.711V27.2C294.362 26.2187 295.135 25.728 296.031 25.728C296.362 25.728 296.682 25.8347 296.991 26.048C297.301 26.2507 297.557 26.6347 297.759 27.2L296.335 27.968C296.186 27.5307 296.01 27.2373 295.807 27.088C295.615 26.928 295.407 26.848 295.183 26.848C294.949 26.848 294.719 26.9227 294.495 27.072C294.271 27.2213 294.042 27.4987 293.807 27.904V32.656C293.807 33.0187 293.823 33.2373 293.855 33.312C293.887 33.376 293.989 33.4187 294.159 33.44L295.359 33.552V34H290.735V33.552L291.615 33.44C291.786 33.4187 291.887 33.376 291.919 33.312C291.951 33.2373 291.967 33.0187 291.967 32.656V27.232C291.967 26.8693 291.951 26.656 291.919 26.592C291.887 26.5173 291.786 26.4693 291.615 26.448L290.735 26.336Z" fill="black"/>
<rect x="1173" y="12" width="148" height="32" rx="7" fill="#D9D9D9"/>
<rect x="1065" y="12" width="84" height="32" rx="7" fill="#D9D9D9"/>
<rect x="575" y="118" width="746" height="580" rx="7" fill="#D9D9D9"/>
<rect x="192" y="80" width="319" height="618" rx="7" fill="#D9D9D9"/>
</svg>
